<svg version="1.2" xmlns="http://www.w3.org/2000/svg" viewBox="0 0 107 105" width="107" height="105"><style>.a{fill:#ff4a3f}.b{fill:#f7f7f7}</style><path fill-rule="evenodd" class="a" d="m19.5 14.8l0.4 0.2h-0.5zm1.7-0.6l-0.4 0.3c-0.1 0-0.1 0-0.1-0.1 0.2-0.3 0.3-0.3 0.5-0.2zm-4.6 2.5l-0.6 0.6 0.2-0.4 1.1-1.1h0.3c0 0.1 0 0.2-0.1 0.3l-0.6 0.5zm2.4-2.3h-0.3l0.2-0.2h0.1zm-2.2 2.7l0.2-0.4h0.2c0 0 0 0.1-0.1 0.2 0 0-0.3 0.2-0.3 0.2z"/><path fill-rule="evenodd" class="a" d="m9.2 24.9q-0.1 0.1-0.2 0.3-0.1 0.1-0.2 0.3-0.1 0.2-0.2 0.3l-0.2 0.2-0.3-0.5c0.6-0.7 0.9-1.6 1.7-2.1 0.4-0.6 0.3-1.3 0.9-1.7l0.2-0.5c-0.1-0.3 0.1-0.5 0.4-0.5q0 0 0 0 0-0.1 0-0.1 0 0 0 0 0-0.1 0-0.1h0.1c1.4-0.4 1.4-2.3 3-2.4q0.1-0.3 0.3-0.5 0.2-0.2 0.4-0.3 0.2-0.2 0.4-0.3 0.2-0.2 0.5-0.3v-0.8c0.3-0.4 0.6-1 1.4-0.9q0 0 0-0.1 0.1-0.1 0.1-0.1 0-0.1 0.1-0.1 0.1-0.1 0.1-0.1c0.3-0.1 0.5-0.2 0.8-0.3q-0.1 0-0.1 0.1-0.1 0-0.1 0.1l-0.3 0.3c-0.8 0.6-1.4 1.4-2.1 2l-0.4 0.5 0.2 0.3-0.3 0.2-0.2 0.3q-0.1 0.1-0.2 0.3-0.2 0.2-0.3 0.3-0.1 0.2-0.2 0.4-0.2 0.1-0.3 0.2l-0.4 0.5q-0.1 0.2-0.1 0.3-0.1 0.1-0.2 0.2-0.1 0.2-0.2 0.3-0.2 0-0.3 0.1l-0.4 0.3-1.1 1.1-0.5 0.6-0.8 0.6q-0.2 0.1-0.3 0.2-0.1 0.1-0.2 0.2-0.1 0.2-0.1 0.3-0.1 0.2-0.1 0.4v0.2q-0.1 0.1-0.3 0.3zm9.3-10.7q0.1-0.1 0.1-0.1 0.1-0.1 0.2-0.2-0.2 0.3-0.3 0.4 0-0.1 0-0.1zm0.3-0.3q0.1 0 0.1-0.2c0.3-0.6 1-0.9 1.7-1.1h-0.3c0.4-0.8 1.2-0.9 1.7-1.4l1.4-1 0.4-0.1-0.5 0.2-0.6 0.6-0.8 0.5q-0.2 0.1-0.3 0.3-0.2 0.1-0.4 0.3-0.2 0.2-0.3 0.4-0.1 0.2-0.2 0.4v0.2q-0.1 0.1-0.2 0.2 0 0-0.1 0.1-0.1 0.1-0.2 0.2-0.1 0-0.2 0.1h-0.4l-0.8 0.3q0 0 0 0zm5.5-4.1h0.2l-0.7 0.3zm27.9-6.9h-0.2q0.4 0 0.9 0 0.4 0 0.9 0 0.4 0.1 0.8 0.2 0.5 0.1 0.9 0.2h0.8q0.5 0 1.1 0 0.5 0.1 1.1 0.2 0.5 0.1 1 0.3 0.4 0.1 0.8 0.3-0.1 0-0.1 0-0.2 0-0.4 0-0.1 0-0.3 0.1h-0.7q0 0 0 0 0-0.1 0-0.1 0 0 0 0 0 0 0 0h0.4q0 0 0 0 0.1 0 0.1-0.1 0 0-0.1 0 0 0 0 0-0.1-0.1-0.2-0.2-0.2-0.1-0.3-0.1-0.2 0-0.3 0-0.2 0-0.3 0h-1.2q-0.2-0.1-0.5-0.1-0.2-0.1-0.4-0.1-0.3 0-0.5 0-0.3 0.1-0.5 0.1-0.2 0-0.3 0-0.2 0-0.4 0-0.2 0-0.3-0.1-0.2 0-0.4-0.1h-0.2l-0.5-0.2zm8.3 1.2q0.1 0 0.3 0.1-0.1 0-0.3 0-0.1-0.1-0.3-0.1 0.2 0 0.3 0zm0.3 0.1q0 0 0 0 0 0 0 0 0 0 0 0zm0.1 0q0 0-0.1 0 0.1 0 0.1 0zm0 0q0.2 0.1 0.3 0.3l-0.2-0.1c-0.1-0.1-0.1-0.1-0.1-0.2zm0.6 0.4h-0.2q0-0.1-0.1-0.1zm5.5 1.7l-0.5-0.3 0.7 0.2q0.3 0.1 0.5 0.1 0.2 0.1 0.5 0.1 0.2 0.1 0.4 0.3 0.2 0.1 0.4 0.2h-0.6q-0.1 0.1-0.3 0.1-0.1 0-0.2 0-0.1 0-0.3-0.1-0.1-0.1-0.2-0.2zm-3-1l-0.7-0.4q0.2 0 0.4 0 0.2 0.1 0.5 0.2 0.2 0 0.4 0.1 0.2 0.1 0.4 0.2l-0.5 0.3h-0.2c-0.1-0.1-0.2-0.2-0.2-0.3zm8.1 3.4l-0.8-0.5c0.4 0 0.6 0.2 0.8 0.5zm-12.1-2.4h0.2z"/><path class="a" d="m97.2 74.7l0.6-1.5 0.5-1.5c0.2-0.5 0.6-1.8 0.8-2.6q0.1-0.1 0.1-0.1 0-0.1 0-0.2 0.1-0.1 0.1-0.2 0.1-0.1 0.1-0.2h0.1v-1c0.5-0.1 0.4-0.6 0.5-0.9l0.8-4.6q0.2-0.8 0.3-1.5 0.1-0.8 0.1-1.6 0-0.7-0.1-1.5-0.1-0.8-0.3-1.5 0-0.2 0-0.4 0-0.3-0.1-0.5 0-0.2-0.1-0.4-0.1-0.1-0.3-0.3v-4.2c-0.3-0.9 0.3-1.9-0.4-2.7l-0.8-3.1q0 0 0-0.1 0 0 0 0 0 0 0-0.1 0 0 0 0l-0.2-0.6q0 0 0-0.1 0 0 0-0.1 0 0 0-0.1 0 0 0-0.1h0.1c0.3 0 0.3-0.5 0.3-0.9q0-0.1 0-0.3-0.1-0.1-0.1-0.2-0.1-0.2-0.1-0.3-0.1-0.1-0.2-0.2l-0.3-0.4q0-0.1 0-0.2-0.1-0.1-0.1-0.2 0-0.1 0-0.1-0.1-0.1-0.1-0.2 0.1-0.3 0.1-0.5-0.1-0.3-0.1-0.5 0-0.3 0-0.5-0.1-0.3-0.2-0.5v-0.6c-0.1-0.7-0.3-1.5-0.5-2.1l-0.2-0.5q-0.1-0.2-0.2-0.3 0-0.1-0.1-0.3 0-0.1-0.1-0.2 0-0.2 0-0.3 0-0.1-0.1-0.2 0-0.1 0-0.2-0.1-0.1-0.1-0.2-0.1-0.1-0.1-0.2l-0.6-1q-0.1 0-0.1-0.1-0.1 0-0.2 0-0.1-0.1-0.1-0.1-0.1 0-0.2 0h-0.1v-0.3h-0.2v-0.8h-0.1v-0.2q0 0 0 0 0 0 0 0 0 0 0 0 0 0 0-0.1v-0.2c0.1-0.1 0.1-0.2-0.1-0.4q-0.1-0.1-0.1-0.2-0.1 0-0.1-0.1-0.1-0.1-0.1-0.2-0.1 0-0.1-0.1l-0.2-0.6q0-0.2-0.1-0.3-0.1-0.2-0.2-0.4 0-0.1-0.1-0.2-0.1-0.2-0.3-0.3 0-0.1-0.1-0.2-0.1 0-0.1-0.1-0.1-0.1-0.2-0.2 0-0.1-0.1-0.2l-0.6-1.6q-0.1-0.1-0.2-0.2 0-0.1-0.1-0.3-0.1-0.1-0.2-0.2 0-0.1-0.1-0.2l-0.6-0.8q-0.1-0.1-0.2-0.2 0-0.1-0.1-0.2 0-0.1 0-0.2-0.1-0.1-0.1-0.2l-0.2-0.3q-0.1-0.1-0.1-0.1 0-0.1 0-0.1 0-0.1 0-0.2 0 0 0-0.1 0-0.1 0-0.1 0-0.1-0.1-0.1 0-0.1 0-0.1-0.1-0.1-0.1-0.1l-0.4-0.3v0.2c0.1 0.2 0 0.3-0.1 0.3h-0.2l0.3 1 0.3 0.5 0.7 0.9h-0.1l-0.2-0.2-0.2-0.2q0-0.2-0.1-0.4-0.2-0.2-0.3-0.4-0.2-0.1-0.4-0.2-0.2-0.1-0.4-0.1v-0.7c-0.3-1.2-1.6-1.3-2.2-2.1q0-0.1-0.1-0.3-0.1-0.1-0.3-0.2-0.1-0.2-0.3-0.2-0.2-0.1-0.3-0.1l-0.8-0.9q-0.3-0.5-0.7-0.9-0.3-0.4-0.7-0.7-0.4-0.4-0.8-0.7-0.4-0.4-0.9-0.7l-0.7-0.6-0.4-0.3c-0.7-0.6-1-1.7-2.2-1.7l-0.8-0.5-0.9-0.7q-0.1-0.3-0.3-0.5-0.1-0.2-0.4-0.4-0.2-0.1-0.5-0.3-0.3-0.1-0.5-0.1-0.3-0.2-0.5-0.4-0.3-0.2-0.6-0.3-0.3-0.2-0.6-0.3-0.3-0.1-0.6-0.2l0.2 0.2 0.5 0.4 1.3 0.7q0.3 0.2 0.5 0.4 0.3 0.1 0.6 0.3 0.2 0.2 0.5 0.4 0.2 0.3 0.4 0.5 0.2 0.1 0.4 0.3 0.1 0.1 0.3 0.3 0.2 0.1 0.4 0.2 0.2 0.2 0.4 0.3l0.6 0.5c0.1 0.1 0.2 0.2 0.1 0.3h-0.1l-0.9-0.3q-0.3-0.1-0.5-0.2-0.3 0-0.5-0.1-0.3-0.1-0.5-0.3-0.2-0.1-0.5-0.2l-1.1-0.6-1.3-0.7h-0.2c-0.3-0.1-0.4-0.4-0.8-0.5l-0.8-0.2-2.4-0.5q-0.2 0-0.3-0.1-0.1-0.1-0.2-0.2-0.1-0.1-0.2-0.2-0.1-0.1-0.2-0.2-0.1 0-0.3 0-0.1 0-0.2-0.1-0.1 0-0.2 0-0.1-0.1-0.2-0.2l-1-0.4q-0.3 0-0.7-0.1-0.3-0.1-0.7-0.2-0.3-0.1-0.7-0.2-0.3-0.1-0.6-0.2l-0.6-0.2-1-0.3h-0.5l-0.2-0.3v-0.1h-1.6l-0.6-0.5-0.3 0.2-0.4 0.2h-0.2l-0.9-0.5c-0.6 0.6-1.1-0.2-1.6-0.1l-1-0.3q-0.1 0.1-0.3 0.1-0.1 0.1-0.3 0.1-0.1 0-0.3-0.1-0.1 0-0.3-0.1h-1.1q-0.1 0-0.2-0.1-0.1 0-0.2-0.1-0.1-0.1-0.1-0.2 0-0.1 0-0.2l0.3-0.2h0.6q0 0 0 0.1 0 0 0 0.1 0 0 0.1 0 0 0.1 0 0.1c0 0.2 0.2 0.2 0.5 0.2h0.1l-0.3-0.6q-0.1-0.1-0.3-0.1-0.1-0.1-0.2-0.1-0.1 0-0.3 0-0.1 0-0.2 0l-1 0.3h-0.1c0.3 0.2 0.2 0.3 0.2 0.5h-1.6l-0.4-0.2-0.8-0.4h-0.1l-0.6-0.2h-2.3l0.4-0.2 0.8-0.2h0.3l1.6-0.3 1.1-0.2 0.6-0.2h-1.1q-0.4-0.1-0.8-0.1-0.4 0-0.8 0-0.5 0-0.9 0-0.4 0-0.8 0.1h-1.3l-3.3-0.1c-1.4 0.1-2.8 0-3.9 1.2-2.4-0.4-4.6 0.7-6.7 1.8l-2.2 0.9q-0.5 0-1 0.2-0.5 0.1-0.9 0.4-0.5 0.2-0.9 0.5-0.5 0.3-0.8 0.6h0.3l0.5-0.3 0.7-0.5 1.3-0.5 1-0.2q0.2-0.2 0.5-0.3 0.2-0.2 0.4-0.3 0.3-0.1 0.5-0.2 0.3-0.1 0.6-0.1l0.9-0.3h0.1c0.1 0.2 0.5 0 0.7 0h0.2c0.1 0 0.1 0.1 0 0.1l-0.6 0.4 1-0.3 0.8-0.2-1.3 0.7-1.2 0.4q-0.1 0-0.2 0-0.1 0.1-0.2 0.1-0.1 0.1-0.1 0.2-0.1 0.1-0.1 0.2l-0.3 0.4h0.3l0.4-0.2q0-0.1 0.1-0.2 0.1-0.1 0.2-0.1 0.2-0.1 0.3-0.2 0.1 0 0.2 0l1.5-0.5h0.5q0.1 0 0.1 0 0 0 0 0 0.1 0.1 0.1 0.1-0.1 0-0.1 0.1c-0.2 0.2-0.6 0.3-0.8 0.5h0.2l-3.1 0.8-3.8 1.6q-0.2 0.2-0.5 0.4-0.2 0.2-0.5 0.3-0.3 0.2-0.6 0.3-0.3 0.1-0.6 0.2-0.2 0.2-0.4 0.3-0.2 0.2-0.4 0.3-0.2 0.1-0.4 0.2-0.3 0.2-0.5 0.3l-0.8 0.2q-0.1 0.2-0.2 0.3-0.1 0.2-0.3 0.3-0.2 0.1-0.3 0.2-0.2 0-0.4 0.1l-0.3 0.4q-0.2 0.2-0.3 0.4-0.1 0.1-0.3 0.2-0.1 0.2-0.3 0.3-0.1 0.1-0.3 0.2h-0.1v-0.1l-0.2 0.2-0.2 0.2-1 0.2h-0.5l-0.4 0.5c-0.1 0.1-0.1 0.2 0 0.2h0.1c-0.6 0.6-1 1.4-1.7 1.7l-1.3 1.4c-0.6 1.2-1.8 1.6-2.6 2.6-0.8 1-1.4 3.8-3.8 4.2l-0.2-0.3-0.2 0.5q0 0.1-0.1 0.2 0 0.1-0.1 0.2 0 0.1-0.1 0.2 0 0.1-0.1 0.2-0.2 0.2-0.3 0.5-0.2 0.3-0.3 0.5-0.2 0.3-0.3 0.5-0.1 0.3-0.3 0.6 0 0 0 0.1 0 0-0.1 0.1 0 0.1 0 0.1 0 0.1 0 0.2 0 0.1 0 0.2 0 0.1 0 0.2 0 0.1-0.1 0.2 0 0.1-0.1 0.1l-0.5 1.1h0.2c0.3 0 0.3 0.3 0.4 0.6l0.8-1.1q0.1-0.1 0.1-0.2 0.1-0.1 0.2-0.1 0.1-0.1 0.1-0.2 0.1-0.1 0.2-0.2 0.1 0 0.3-0.1 0.1-0.1 0.2-0.2 0.1-0.1 0.2-0.3 0.1-0.1 0.2-0.2l0.3-0.3 0.4-0.4 0.6-1.1h0.2c0.1 0.1 0.1 0.1 0.2 0l0.2-0.4h0.4v0.8l0.5-0.5q0.1-0.1 0.1-0.1 0-0.1 0-0.2 0 0 0-0.1 0 0-0.1-0.1 0 0 0-0.1 0 0 0.1-0.1 0 0 0 0 0-0.1 0-0.1 0.1 0 0.1-0.1 0.1-0.1 0.1-0.1 0-0.1 0.1-0.2 0 0 0-0.1 0.1-0.1 0.1-0.3 0.1-0.1 0.2-0.2 0.1-0.1 0.2-0.2 0.2-0.1 0.3-0.2l0.3-0.2 0.3-0.3q0.1-0.1 0.3-0.2 0.1-0.1 0.2-0.2 0.1-0.1 0.1-0.3 0.1-0.1 0.2-0.2l-0.2-0.3c0-0.1 0.1-0.3 0.2-0.4h0.5l0.6-0.8 0.6-0.3h0.2q-0.8 0.8-1.5 1.7-0.7 0.8-1.4 1.7-0.7 0.9-1.3 1.8-0.7 0.9-1.2 1.9h-0.1 0.1q-0.9 1.2-1.6 2.6-0.7 1.3-1.4 2.7-0.7 1.4-1.2 2.8-0.6 1.4-1 2.9h-0.5l-0.5-0.4c-0.2-0.2-0.1-0.7-0.4-0.9h0.1c0.3-0.5-0.1-1.2 0.3-1.7 0.4-0.5 0.1-1.4-0.9-1.2-1 0.2-1.5 0.5-1.3 1.5 0.2 1-1 1.8-1.1 2.9-0.1 1-0.5 0.4-0.3 0.8v3.9c0.1 0.8-0.5 1.7 0.8 2l1.3 0.9c0.1 0.5-0.5 1.6 0.9 1.3q-0.1 0.6-0.1 1.2-0.1 0.6-0.1 1.2-0.1 0.7-0.1 1.3 0 0.6 0 1.2c0 1.1 0.1 2.2 0.1 3.2v-0.3c-0.1-0.4-0.1-0.8-0.2-1.3l-0.3 0.3v-0.2h-0.5c0 0.5-0.1 0.8-0.4 0.9q0 0 0 0.1-0.1 0-0.1 0.1 0 0.1 0 0.1 0 0.1 0 0.1c0 0.1 0.1 0.3 0.2 0.2 0.1-0.1 0.4 0.2 0.7 0.4 0.3 0.2-0.2 0.3-0.4 0.2-0.2-0.1-0.2 0.1-0.2 0.3v0.3l0.5 1.5c0 0.3-0.1 0.6-0.1 0.9q0 0.1 0 0.2 0 0.1 0 0.2 0.1 0.1 0.1 0.2 0 0.1 0.1 0.2h-0.3v-0.3l-0.7-0.2v-0.6q0-0.1 0-0.1 0-0.1 0-0.2 0 0 0-0.1 0 0 0-0.1 0-0.2-0.1-0.4 0-0.3-0.1-0.5 0-0.2 0-0.4-0.1-0.2-0.1-0.5-0.1-0.4-0.1-0.8 0-0.5-0.1-0.9 0-0.4 0-0.8 0-0.5 0-0.9 0-0.1 0-0.1 0-0.1 0-0.2 0 0 0.1-0.1 0 0 0-0.1v0.2q0 0.1 0.1 0.1 0 0.1 0 0.1 0 0.1 0 0.2 0 0 0 0.1 0 0 0 0.1 0 0 0 0.1 0.1 0 0.1 0.1 0 0 0 0.1c0.1 0.2 0.2 0.4 0.4 0.4 0.2 0 0.1-0.1 0.1-0.2q0-0.1 0-0.1 0-0.1 0-0.2 0 0-0.1-0.1 0-0.1 0-0.1-0.1-0.2-0.1-0.3-0.1-0.2-0.1-0.3 0-0.2 0-0.4-0.1-0.1-0.1-0.3 0-0.1 0-0.2-0.1-0.1-0.1-0.2 0 0-0.1-0.1 0-0.1-0.1-0.2 0-0.1-0.1-0.2 0-0.1 0-0.2-0.1-0.1-0.1-0.2 0-0.1 0-0.3v-0.7c0-0.3 0.1-0.6 0.1-0.9q0-0.1 0-0.1 0-0.1 0-0.1 0-0.1 0-0.1 0-0.1-0.1-0.1h-0.1c-0.8 0.4-0.7 0.2-1 1.5v1.8c0 0.7-0.1 1.4 0 2.1q0 0.3 0 0.5 0.1 0.3 0.1 0.6 0 0.3 0 0.6 0.1 0.3 0.1 0.5 0 0.1 0.1 0.2 0 0 0 0.1 0 0 0 0.1-0.1 0.1-0.1 0.1 0 0.1 0 0.2 0 0.2 0.1 0.3 0 0.1 0 0.2 0 0.1 0 0.2 0.1 0.2 0.1 0.3 0 0.2 0 0.3 0 0.2 0 0.4 0 0.1 0 0.3 0 0.2 0 0.4 0 0.2 0 0.4 0.1 0.2 0.1 0.4 0.1 0.3 0.1 0.5 0 0 0 0.1 0 0 0 0.1 0 0 0 0.1 0 0 0 0 0 0.1 0 0.2 0 0.1 0 0.2 0.1 0.1 0.1 0.2 0 0.1 0 0.2 0.1 0.1 0.1 0.3 0 0.1 0.1 0.2 0 0.1 0 0.2 0 0.1 0 0.2 0.1 0.3 0.1 0.6 0.1 0.2 0.1 0.5 0.1 0.3 0.2 0.5 0 0.3 0.1 0.6 0.1 0.1 0.1 0.2 0 0.1 0 0.3 0.1 0.1 0.1 0.2 0 0.1 0 0.3 0 0.1 0.1 0.1 0 0.1 0 0.2 0.1 0.1 0.1 0.2 0.1 0.1 0.1 0.1 0.1 0.2 0.2 0.3 0.1 0.2 0.1 0.3 0.1 0.2 0.1 0.3 0.1 0.2 0.1 0.3 0 0.2 0.1 0.3 0 0.1 0 0.2 0.1 0.1 0.1 0.3 0.1 0.1 0.1 0.2l0.4 1.4q0 0.2 0.1 0.4 0.1 0.2 0.1 0.3 0.1 0.2 0.2 0.4 0.1 0.2 0.2 0.4 0.1 0.2 0.2 0.5 0.1 0.2 0.2 0.5 0.1 0.2 0.2 0.5 0.1 0.2 0.2 0.5l0.2 0.5q0.1 0.1 0.1 0.2 0.1 0.1 0.2 0.3 0 0.1 0.1 0.2 0 0.2 0.1 0.3 0 0.1 0 0.2 0.1 0.1 0.1 0.2 0.1 0.1 0.1 0.2 0.1 0.1 0.1 0.2 0.1 0 0.1 0.1 0.1 0 0.1 0.1 0 0.1 0 0.1 0 0.1 0 0.2c0.1 0.3 0.2 0.4 0.4 0.3h0.1v0.8l0.5 1 0.5 1 1.1 1.2 0.4 0.4c0.3 0.3 0.7 0.5 0.9 1l0.4 0.3q0 0 0.1 0.1 0 0 0.1 0.1 0 0 0 0.1 0 0.1 0.1 0.1l0.2 0.7q0 0.2 0.1 0.3 0 0.1 0.1 0.2 0.1 0.1 0.2 0.2 0.1 0.1 0.1 0.2l0.4 0.2h0.3q0.1 0 0.1 0.1 0 0 0.1 0 0 0.1 0 0.1 0 0.1-0.1 0.1 0 0.1 0 0.1 0 0.1 0 0.2 0 0 0 0.1 0 0 0 0.1 0.1 0.1 0.1 0.2 0 0 0.1 0.1 0 0 0.1 0.1 0.1 0.1 0.1 0.1h0.2c0.4-0.1 0.8 0.2 1.2 0.7h0.1c0-0.1 0.1-0.1 0-0.2v-0.2c0-0.1 0.1-0.2 0.2-0.1q0.1 0 0.1 0.1 0.1 0.1 0.1 0.1 0.1 0.1 0.1 0.2 0 0.1 0 0.2v0.2q0 0.1 0.1 0.3 0 0.1 0 0.3 0.1 0.1 0.1 0.3 0.1 0.1 0.2 0.3c0.5 0.2 0.5 0.2 0.5 0.1 0-0.2 0-0.2 0.2-0.2h0.4l0.2 0.3 0.7 0.4c0.7 0.8 1.8 0.7 2.6 1.2l1.7 1.7h0.2q0.1 0.3 0.2 0.5 0.2 0.2 0.4 0.4 0.2 0.2 0.4 0.4 0.3 0.2 0.5 0.3 0.1 0.1 0.2 0.2 0.1 0.1 0.3 0.2 0.1 0 0.2 0.1 0.2 0 0.3 0.1c0 0.4 0.6 0.5 1.1 0.6q0.1 0.1 0.2 0.2 0 0.1 0.1 0.1 0.1 0.1 0.3 0.1 0.1 0 0.2 0h0.2q0.1 0.2 0.3 0.3 0.2 0.1 0.4 0.2 0.1 0 0.3 0 0.2 0.1 0.4 0l0.9 0.8 2.4 0.9v0.2c0.5 1.1 1.7 0.7 2.4 1l1.1 0.4h0.4c1.2 0.3 2.4 0.8 3.7 0.5q-0.1 0-0.1 0.1 0 0 0 0.1 0 0 0 0 0 0.1 0.1 0.1c1 0.7 2.3 0 3.5 0.4q0.2 0.1 0.4 0.2 0.2 0 0.4 0 0.2 0 0.4 0 0.2 0 0.5-0.1h0.1l0.7 0.2h0.3l0.9 0.2h0.3q0.1 0 0.1 0 0.1 0 0.2 0 0 0 0.1 0 0 0 0.1 0 0.2 0.1 0.4 0.2 0.1 0 0.3 0.1 0.2 0 0.4 0.1 0.2 0 0.4 0h0.6q0 0 0.1 0 0.1-0.1 0.2-0.1 0.1 0 0.2 0.1 0.1 0 0.2 0h3.8q0.2 0 0.4 0 0.2 0.1 0.4 0 0.2 0 0.4 0 0.2 0 0.4-0.1h0.9l0.5-0.2h3.3l0.6-0.2 0.4-0.3h2.2v0.6h-1.3l-1.1 0.2c-0.4 0.1-0.7 0-1 0.1q-0.1 0.1-0.3 0.1-0.1 0-0.2 0.1-0.1 0-0.3 0-0.1 0-0.2 0l-1.3 0.3h-0.4q-0.2 0-0.3 0-0.2 0-0.4 0-0.2 0-0.4 0-0.2 0.1-0.4 0.1h-1.7q-0.1 0.1-0.2 0.1-0.1 0-0.3 0-0.1 0-0.2 0-0.1 0-0.2-0.1h-4.4q-0.2 0-0.3 0-0.2 0-0.3 0-0.1 0.1-0.3 0.1-0.1 0.1-0.2 0.2h-0.3l-0.3-0.2v-0.3h-1.2q-0.1 0-0.3-0.1-0.1 0-0.3-0.1-0.2 0-0.3 0-0.2-0.1-0.3-0.1h-2.5l-0.7-0.2-0.5-0.2-2-0.4h-0.5l-0.5-0.2-2.1-0.6-1.4-0.4h-2.1c-0.1 0-0.1 0.1-0.1 0.2h0.2c1.3 0.4 2.5 0.8 3.8 1.4h0.3l0.9 0.2 1.4 0.4h1.2l0.6 0.2 0.7 0.3 1.7 0.3 1.1 0.2 1 0.2h0.8l0.8 0.2h3.1l0.9 0.2h2.3l1-0.2h2.1c0.4 0 0.6-0.1 0.7-0.3h1q0.1 0 0.2 0 0.1 0 0.2-0.1 0.1 0 0.2-0.1 0.1 0 0.2-0.1c-0.1 0.1 0 0.1 0.1 0.2h0.4v-0.2c0-0.1 0-0.1 0.2-0.2 0.2-0.1 0.6-0.1 0.7 0.1h0.4l0.3-0.2c0.2 0 0.2 0 0.2 0.1h0.6l0.5-0.2 0.8-0.4c0.1 0.3 0.4 0.4 1.3 0.2l1.3-0.4h1.2c0.8-0.1 1.9 0 2.6-0.7h0.2l0.4-0.3 1.1-0.3q0.2 0 0.5-0.1 0.2-0.1 0.5-0.2 0.2-0.1 0.5-0.2 0.2-0.1 0.4-0.2l0.4-0.2h0.1l0.9-0.6 0.4-0.2 0.5-0.2h0.4c0.4-0.1 0.4-0.1 0.5-0.4 0.1-0.3 0-0.1-0.2-0.1h-0.1l0.4-0.5h0.2c0.3-0.1 0.5-0.2 0.7-0.1h0.2q0.1 0 0.3-0.1 0.1-0.1 0.2-0.2 0.1-0.1 0.2-0.3 0.1-0.1 0.1-0.3c0.3-0.4 1.1-0.2 1.3-0.8l4.2-3c1.1-0.1 1.4-1.1 2.2-1.7 0.8-0.6 2.3-1.1 2.9-2.1l0.9-0.4h0.1q0.2 0 0.4 0 0.2 0 0.4-0.1 0.1-0.1 0.2-0.3 0.2-0.1 0.2-0.3v0.4c0.8-0.4 1.8 0.3 2.6-0.5 0.7-0.8 0-2.7 0.9-3.8l0.7-0.4q0.3-0.5 0.5-1 0.3-0.5 0.5-1 0.1-0.6 0.3-1.1 0.1-0.5 0.2-1.1l0.2-0.2c0-0.3 0-0.7 0.4-0.9q0.1-0.1 0.2-0.2 0.1-0.1 0.1-0.3 0-0.2 0-0.3 0-0.2-0.1-0.3h-0.2q0-0.1 0-0.1 0 0 0-0.1 0 0 0-0.1 0 0 0 0c0.7 0 0.8-0.7 1.2-1v-1.4q0 0 0 0 0-0.1 0-0.1 0 0 0 0 0-0.1 0-0.1 0-0.1 0-0.1 0-0.1 0-0.2 0-0.1 0.1-0.2 0-0.1 0-0.2z"/><path fill-rule="evenodd" class="a" d="m25.7 9.4l-0.5 0.2 0.4-0.3 0.3-0.2zm6.2-2.4h0.4l-0.3 0.2h-0.1zm-2.6 1.3h-0.1l0.1-0.1zm-20.3 17.5q0 0.1-0.1 0.2 0 0 0 0.1-0.1 0-0.1 0h-0.2l0.4-0.4q0 0.1 0 0.1zm2.7-3.4c-0.1 0-0.1-0.1 0-0.2q0.1-0.1 0.1-0.1 0.1-0.1 0.1-0.2 0.1 0 0.2-0.1 0 0 0.1-0.1 0 0.1 0 0.2-0.1 0-0.1 0.1 0 0.1-0.1 0.2 0 0-0.1 0.1zm-1.7 1.7v-0.2c0.2 0 0.5-0.3 0.7-0.3v0.2c-0.4 0.5-0.5 0.6-0.7 0.3zm62.1-15.4l0.5 0.3h-0.1zm-2.8-1.5l-0.3-0.2 1.1 0.5 0.9 0.5 0.3 0.2h-0.1c-0.4-0.1-0.7-0.6-1.1-0.5zm-6-2.2h-0.1l-1.2-0.2h0.5zm2.3 0.7q0.1 0.1 0.3 0.1 0.2 0.1 0.3 0.1 0.2 0.1 0.3 0.2l-1.3-0.4q0.2 0 0.4 0zm-9.4 0.1l-0.4-0.3 0.3-0.3h0.5q0 0.1 0 0.1 0 0.1-0.1 0.2 0 0 0 0.1-0.1 0-0.1 0.1zm4.9 0.3q0 0 0 0 0-0.1 0-0.1 0 0 0 0 0 0 0 0zm44.3 51.4q0.1 0.1 0.3 0.2 0.1 0.2 0.2 0.3 0 0.2 0.1 0.3-0.1 0.1-0.1 0.2-0.1 0.1-0.1 0.2 0 0.1 0 0.2 0 0.1 0 0.2h0.1q0 0.1 0 0.1 0 0 0 0.1 0 0-0.1 0.1 0 0 0 0h-0.1l-0.3 1v0.2q0 0.2 0 0.3 0 0.2 0 0.4-0.1 0.2-0.1 0.3 0 0.2-0.1 0.4 0 0 0 0 0 0.1 0 0.1 0 0.1 0 0.1 0 0 0 0.1 0 0 0 0.1 0 0.1 0 0.2 0 0.1-0.1 0.1 0 0.1-0.1 0.1l-0.4 0.2q0 0.1 0 0.2 0 0.1 0 0.2 0 0.1 0 0.2-0.1 0.1-0.1 0.2c0.2-0.1 0.3-0.3 0.5-0.3v-0.4c0.1 0 0.1 0.2 0.1 0.3v0.3q0 0.1 0 0.3 0 0.1 0 0.2-0.1 0.1-0.1 0.2 0 0.1-0.1 0.2l-0.2 0.5q0 0 0-0.1 0 0 0 0 0-0.1 0-0.1-0.1-0.1-0.1-0.1c-0.1 0-0.1-0.2-0.2 0.2-0.1 0.4-0.1 0.4 0 0.6v0.5q0 0.1-0.1 0.2 0 0.1-0.1 0.2 0 0.1 0 0.2-0.1 0.2-0.1 0.3 0 0.1 0 0.3 0 0.2-0.1 0.3 0 0.2 0 0.3-0.1 0.2-0.2 0.4 0 0.1 0 0.2-0.1 0.1-0.1 0.2 0 0.1 0 0.2-0.1 0.1-0.1 0.2l-0.5 1-0.3 0.4c-0.1 0.3-0.1 0.4-0.1 0.6q0 0.1 0 0.2 0 0 0 0.1 0 0.1-0.1 0.2 0 0 0 0.1-0.1 0.1-0.2 0.2 0 0.1-0.1 0.3 0 0.1 0 0.2 0 0.1 0 0.3l-0.4 1-0.3 0.5-0.5 0.9c-0.2 0.5-0.2 0.5-0.6 0.6h-0.3l-0.2 0.5q-0.1 0.4-0.3 0.3h-0.2c-0.1 0-0.1-0.1-0.1-0.2q0-0.1 0-0.2 0-0.1 0-0.2 0-0.1 0.1-0.2 0-0.1 0-0.2 0-0.1 0.1-0.1 0-0.1 0-0.2-0.1-0.1-0.1-0.1 0-0.1-0.1-0.2h-0.2c-0.2 0.2-0.3 0.2-0.4 0.1h-0.2l-0.2 0.4-0.4 0.3c-0.2 0.1-0.3 0-0.3-0.1v-0.4q0.3-0.2 0.4-0.5 0.2-0.2 0.3-0.5 0.1-0.3 0.1-0.6 0.1-0.3 0-0.6c0.4-0.6 1.1-1.2 0.8-2.1l0.9-2.6 0.3-0.6q0-0.1 0.1-0.2 0-0.1 0.1-0.2 0-0.1 0-0.1 0.1-0.1 0.1-0.2l0.3-0.7q0-0.1 0-0.2 0 0 0-0.1 0-0.1 0-0.2 0 0 0-0.1 0-0.2 0.1-0.3 0-0.2 0-0.3 0.1-0.2 0.1-0.4 0-0.1 0-0.3 0 0 0-0.1 0 0 0-0.1 0 0 0-0.1 0 0 0-0.1 0-0.1 0-0.3 0-0.2 0.1-0.4 0-0.1 0.1-0.3 0-0.2 0.1-0.3v-0.4h-0.3v-1c0.1 0.2 0.3 0.3 0.5 0.1l-0.3-0.5 0.2-0.6c0-0.1-0.1-0.2 0.1-0.3 0.2-0.1 0.3-0.5 0.3-0.7v-0.6q0 0 0-0.1 0 0 0 0 0-0.1 0-0.1 0 0 0.1-0.1c0 0 0.1 0.1 0.1 0.2q0 0.2 0 0.4 0 0.3 0 0.5 0 0.2-0.1 0.4 0 0.2 0 0.4-0.1 0.1-0.1 0.2 0 0.1 0 0.2 0 0.1 0.1 0.2 0 0.1 0.1 0.2l0.2 0.2h0.2q0-0.1 0.1-0.3 0.1-0.1 0.1-0.2 0-0.2 0.1-0.3 0-0.2-0.1-0.3v-0.6l0.4-0.7h0.1q0.1 0 0.1-0.1 0-0.1 0-0.1 0-0.1 0-0.1 0-0.1 0-0.2v-0.4q0-0.1 0-0.2 0-0.1 0-0.2 0-0.1 0.1-0.2 0-0.1 0-0.1h-0.1q0-0.1 0-0.1-0.1-0.1-0.1-0.1 0-0.1 0-0.1 0-0.1 0-0.1 0.1-0.2 0.1-0.3 0-0.1 0.1-0.2 0-0.1 0.1-0.2 0.1-0.1 0.1-0.2 0-0.1 0.1-0.1 0 0 0-0.1 0 0 0 0 0-0.1 0-0.1h0.1c0.1 0 0.1-0.1 0.1-0.2q0 0 0-0.1 0 0 0 0 0 0 0-0.1 0 0 0 0c0.2-0.1 0.3-0.4 0.4-0.7l0.2 0.3h0.2q0 0 0 0 0 0.1 0 0.1 0 0 0 0 0 0.1 0 0.1l-0.2 0.4q0 0 0 0.1 0 0 0.1 0.1 0 0 0 0 0.1 0.1 0.1 0.1c0.2 0.1 0.2 0.7 0.3 0.8 0.1 0.1 0 0.4-0.1 0.4h-0.3v0.4h0.3q0.2 0 0.3 0.1zm-97.4-25.8h-0.1v-0.2c0-0.3 0.3-0.6 0.3-0.9l0.3-0.6 0.2-0.1 0.2 0.1q0 0.1 0 0.1 0 0 0 0 0 0.1 0 0.1 0 0 0 0zm95.3 22.6q0-0.1 0-0.3 0-0.1 0-0.3 0-0.1 0-0.3v-0.2c0-0.2 0-0.3 0.1-0.3 0.1 0 0.2-0.2 0.3-0.3h0.1l0.2 0.2v0.2h-0.1q0 0-0.1 0.1 0 0-0.1 0.1 0 0 0 0.1 0 0.1 0 0.1 0 0.2 0 0.4 0.1 0.1 0 0.3 0 0.1-0.1 0.3 0 0.1-0.1 0.2h-0.1q0-0.1-0.1-0.3zm-90.2 34.4q0 0 0.1 0.1 0 0 0.1 0 0.1 0.1 0.1 0.1 0.1 0 0.2 0c-0.1 0.1 0 0.4 0.2 0.7h-0.1l-0.8-0.8c0-0.1-0.1-0.3 0-0.3zm91-35c0-0.4 0-0.4 0.3-0.5q0 0 0 0.1 0 0.1 0 0.2 0 0 0 0.1 0 0.1 0 0.1h-0.1c-0.1 0.1-0.2 0.5-0.2 0z"/><path fill-rule="evenodd" class="a" d="m104.5 60.5v-0.2h0.2c0-0.1 0.1 0 0.1 0.1q0 0.1 0 0.1 0 0.1 0 0.2 0 0 0 0.1 0 0-0.1 0.1c-0.1 0.1-0.2 0-0.2-0.4zm0.3-7.5q0 0.1 0 0.1 0 0.1 0 0.2 0 0.1-0.1 0.1v-0.6h0.1q0 0.1 0 0.2zm-87.9 38.1v0.2h-0.2l-0.2-0.2v-0.2h0.2zm84.8-33c0.1 0 0.1 0 0.1 0.1zm-91.9 26.8l0.4 0.5-0.5-0.5z"/><path class="a" d="m10.2 85.5z"/><path fill-rule="evenodd" class="a" d="m90.9 22.8h0.1l0.2 0.3zm-85.3 9q0.1 0 0.1 0 0-0.1 0-0.1 0 0 0 0 0-0.1 0-0.1v0.2zm10.4 58.9c0.1 0.1 0 0.2-0.1 0.1h0.1zm0.2 0.7l0.1 0.1h-0.1zm-6.7-61.8h-0.1v0.1-0.1zm92.9 29.9v0.1z"/><path class="b" d="m46.5 78.1q0 0.6-1.4 1.8-1.4 1.1-2.5 1.1h-19.9q6-24.3 8.6-56.5 0-0.5 1.4-1.6 1.4-1.1 2.4-1.2 13.2-1.1 20.1-1.1-6.3 27.4-8.7 57.5zm31.9-16.9l-0.6 8.9q0 2.4 0.9 3.8 0.9 1.5 3.2 1.8-0.4 2.8-1.4 4.6-7.9 1.8-13.4 1.8-5.5 0-8.6-1.5-2.9-1.5-2.9-4.7 0-3.2 0.9-8.8 1-5.6 1-7.9 0-2.4-1-4-1.1-1.5-2.9-1.7 0.2-2 1.5-3.5 3.7-2 5.8-6 2-4.1 2-8.9 0-7.1-4.2-11.5 0-0.7 1.4-1.9 1.4-1.2 2.4-1.2 7.9 0 13.6 3.3 2.9 1.7 4.6 4.6 1.8 2.9 1.8 6.6 0 6.2-5.7 10.6-5.7 4.3-15.2 5l4 0.3q5.8 0.6 9.3 3.1 3.5 2.5 3.5 7.2z"/></svg>