<svg version="1.2" xmlns="http://www.w3.org/2000/svg" viewBox="0 0 107 105" width="107" height="105"><style>.a{fill:#ca3433;stroke:#000;stroke-width:.4}.b{fill:#fff}</style><path class="a" d="m53.5 104.9c-28.4 0-51.4-23-51.4-51.4 0-28.4 23-51.4 51.4-51.4 28.4 0 51.4 23 51.4 51.4 0 28.4-23 51.4-51.4 51.4z"/><path fill-rule="evenodd" class="b" d="m52.4 69.6h-2.1v13.4h2.6v0.8h-13v-0.8h2.6v-26.5h-2.6v-0.8h12.1q5.2 0 7.4 0.5 2.2 0.6 3.1 1.3 1.9 1.6 1.9 5 0 3.4-1.7 4.9-1.7 1.5-5.1 1.7v0.2q3.2 0.4 4.5 1.9 1.3 1.5 1.3 5v2.1q0 2.1 0.2 2.8 0.2 0.7 0.9 0.7 0.8 0 1.2-0.6 0.4-0.7 0.8-2.8l0.6 0.1q-0.4 3.4-1.5 4.5-1.1 1.2-4.4 1.2-3.3 0-4.7-1.6-1.4-1.5-1.4-5.8v-2.9q0-2.2-0.5-3.3-0.6-1-2.2-1zm-0.8-13.1h-1.3v12.3h1.3q2.3 0 3.4-1.4 1.1-1.4 1.1-4.6v-1.1q0-3.2-1.1-4.2-1.1-1-3.4-1z"/><path fill-rule="evenodd" class="b" d="m52.4 69.6h-2.1v13.4h2.6v0.8h-13v-0.8h2.6v-26.5h-2.6v-0.8h12.1q5.2 0 7.4 0.5 2.2 0.6 3.1 1.3 1.9 1.6 1.9 5 0 3.4-1.7 4.9-1.7 1.5-5.1 1.7v0.2q3.2 0.4 4.5 1.9 1.3 1.5 1.3 5v2.1q0 2.1 0.2 2.8 0.2 0.7 0.9 0.7 0.8 0 1.2-0.6 0.4-0.7 0.8-2.8l0.6 0.1q-0.4 3.4-1.5 4.5-1.1 1.2-4.4 1.2-3.3 0-4.7-1.6-1.4-1.5-1.4-5.8v-2.9q0-2.2-0.5-3.3-0.6-1-2.2-1zm-0.8-13.1h-1.3v12.3h1.3q2.3 0 3.4-1.4 1.1-1.4 1.1-4.6v-1.1q0-3.2-1.1-4.2-1.1-1-3.4-1z"/><path class="b" d="m48.4 29.8c-1.9 0-3.4-1.5-3.4-3.4 0-1.9 1.5-3.4 3.4-3.4 1.9 0 3.4 1.5 3.4 3.4 0 1.9-1.5 3.4-3.4 3.4z"/><path fill-rule="evenodd" class="b" d="m58.4 30c-2 0-3.6-1.6-3.6-3.6 0-2 1.6-3.6 3.6-3.6 1.9 0 3.5 1.6 3.5 3.6 0 2-1.6 3.6-3.5 3.6zm3.1-3.6c0-1.8-1.4-3.2-3.1-3.2-1.8 0-3.2 1.4-3.2 3.2 0 1.7 1.4 3.1 3.2 3.1 1.7 0 3.1-1.4 3.1-3.1z"/><path class="b" d="m48.4 39.3c-1.9 0-3.4-1.5-3.4-3.4 0-1.9 1.5-3.4 3.4-3.4 1.9 0 3.4 1.5 3.4 3.4 0 1.9-1.5 3.4-3.4 3.4z"/><path class="b" d="m58.4 39.2c-1.9 0-3.4-1.5-3.4-3.4 0-1.8 1.5-3.4 3.4-3.4 1.8 0 3.4 1.6 3.4 3.4 0 1.9-1.6 3.4-3.4 3.4z"/><path class="b" d="m48.4 48.8c-1.9 0-3.4-1.5-3.4-3.4 0-1.9 1.5-3.4 3.4-3.4 1.9 0 3.4 1.5 3.4 3.4 0 1.9-1.5 3.4-3.4 3.4z"/><path fill-rule="evenodd" class="b" d="m58.4 49c-2 0-3.6-1.6-3.6-3.6 0-2 1.6-3.6 3.6-3.6 1.9 0 3.5 1.6 3.5 3.6 0 2-1.6 3.6-3.5 3.6zm3.1-3.6c0-1.7-1.4-3.2-3.1-3.2-1.8 0-3.2 1.5-3.2 3.2 0 1.7 1.4 3.1 3.2 3.1 1.7 0 3.1-1.4 3.1-3.1z"/></svg>